<svg width="21" height="16" viewBox="0 0 21 16" fill="none" xmlns="http://www.w3.org/2000/svg">
<path d="M6.49896 11.501L17.0698 0.930208C17.3983 0.601735 17.8163 0.4375 18.324 0.4375C18.8316 0.4375 19.2497 0.601735 19.5781 0.930208C19.9066 1.25868 20.0708 1.67674 20.0708 2.18437C20.0708 2.69201 19.9066 3.11007 19.5781 3.43854L7.75312 15.2635C7.39479 15.6219 6.97674 15.801 6.49896 15.801C6.02118 15.801 5.60313 15.6219 5.24479 15.2635L0.586458 10.6052C0.257985 10.2767 0.09375 9.85868 0.09375 9.35104C0.09375 8.8434 0.257985 8.42535 0.586458 8.09687C0.91493 7.7684 1.33299 7.60417 1.84062 7.60417C2.34826 7.60417 2.76632 7.7684 3.09479 8.09687L6.49896 11.501Z" fill="#EFEFEF"/>
</svg>
