<svg width="22" height="22" viewBox="0 0 22 22" fill="none" xmlns="http://www.w3.org/2000/svg">
<path d="M9.5 20.7337L0.700001 11.9337C0.566667 11.8004 0.472 11.656 0.416 11.5004C0.36 11.3449 0.332445 11.1782 0.333334 11.0004C0.333334 10.8226 0.361334 10.656 0.417334 10.5004C0.473334 10.3449 0.567556 10.2004 0.700001 10.0671L9.5 1.26707C9.74445 1.02263 10.0502 0.895073 10.4173 0.884406C10.7844 0.87374 11.1009 1.00129 11.3667 1.26707C11.6333 1.51152 11.7724 1.8173 11.784 2.18441C11.7956 2.55152 11.6676 2.86796 11.4 3.13374L4.86667 9.66707H19.7667C20.1444 9.66707 20.4613 9.79507 20.7173 10.0511C20.9733 10.3071 21.1009 10.6235 21.1 11.0004C21.1 11.3782 20.9724 11.6951 20.7173 11.9511C20.4622 12.2071 20.1453 12.3346 19.7667 12.3337H4.86667L11.4 18.8671C11.6444 19.1115 11.7724 19.4226 11.784 19.8004C11.7956 20.1782 11.6676 20.4893 11.4 20.7337C11.1556 21.0004 10.8444 21.1337 10.4667 21.1337C10.0889 21.1337 9.76667 21.0004 9.5 20.7337Z" fill="#EFEFEF"/>
</svg>
