<svg width="17" height="17" viewBox="0 0 17 17" fill="none" xmlns="http://www.w3.org/2000/svg">
<path d="M8.49998 11.0084L13.6958 16.2043C14.0243 16.5327 14.4423 16.697 14.95 16.697C15.4576 16.697 15.8757 16.5327 16.2041 16.2043C16.5326 15.8758 16.6969 15.4577 16.6969 14.9501C16.6969 14.4425 16.5326 14.0244 16.2041 13.6959L11.0083 8.5001L16.2041 3.30426C16.5326 2.97579 16.6969 2.55774 16.6969 2.0501C16.6969 1.54246 16.5326 1.1244 16.2041 0.795931C15.8757 0.467458 15.4576 0.303223 14.95 0.303223C14.4423 0.303223 14.0243 0.467458 13.6958 0.795931L8.49998 5.99176L3.30414 0.795931C2.97567 0.467458 2.55761 0.303223 2.04997 0.303223C1.54234 0.303223 1.12428 0.467458 0.795808 0.795931C0.467336 1.1244 0.303101 1.54246 0.303101 2.0501C0.303101 2.55774 0.467336 2.97579 0.795808 3.30426L5.99164 8.5001L0.795808 13.6959C0.467336 14.0244 0.303101 14.4425 0.303101 14.9501C0.303101 15.4577 0.467336 15.8758 0.795808 16.2043C1.12428 16.5327 1.54234 16.697 2.04997 16.697C2.55761 16.697 2.97567 16.5327 3.30414 16.2043L8.49998 11.0084Z" fill="#F51C2F"/>
</svg>
