<svg width="23" height="25" viewBox="0 0 23 25" fill="none" xmlns="http://www.w3.org/2000/svg">
<path d="M20.625 1.875L18.75 0L16.875 1.875L15 0L13.125 1.875L11.25 0L9.375 1.875L7.5 0L5.625 1.875L3.75 0V17.5H0V21.25C0 23.325 1.675 25 3.75 25H18.75C20.825 25 22.5 23.325 22.5 21.25V0L20.625 1.875ZM15 22.5H3.75C3.0625 22.5 2.5 21.9375 2.5 21.25V20H15V22.5ZM20 21.25C20 21.9375 19.4375 22.5 18.75 22.5C18.0625 22.5 17.5 21.9375 17.5 21.25V17.5H6.25V3.75H20V21.25Z" fill="#EFEFEF"/>
<path d="M7.49994 6.25H14.9999V8.75H7.49994V6.25ZM7.49994 10H14.9999V12.5H7.49994V10ZM16.2499 6.25H18.7499V8.75H16.2499V6.25ZM16.2499 10H18.7499V12.5H16.2499V10Z" fill="#EFEFEF"/>
</svg>
