<svg width="39" height="28" viewBox="0 0 39 28" fill="none" xmlns="http://www.w3.org/2000/svg">
<g clip-path="url(#clip0_1088_4923)">
<path d="M11.8753 8.01438C10.0932 9.0422 8.55442 10.5286 7.39141 12.3457C6.2284 14.1627 5.47599 16.256 5.19895 18.4453M18.9963 3.54542L18.9963 1.80836M18.9963 1.80836L20.5392 1.64861C20.412 1.44284 19.9432 1.18411 18.9963 1.18396M18.9963 1.80836L17.4534 1.6487C17.6201 1.47334 17.9488 1.18396 18.9963 1.18396M18.9963 1.80836L18.9963 1.18396" stroke="#EFEFEF" stroke-width="1.5082" stroke-linecap="round" stroke-linejoin="round"/>
<path fill-rule="evenodd" clip-rule="evenodd" d="M18.3921 2.79834C9.14483 2.79834 1.75305 10.8095 1.28307 20.6881H0.207764C-0.344521 20.6881 -0.792236 21.1358 -0.792236 21.6881C-0.792236 22.2404 -0.344521 22.6881 0.207764 22.6881H2.25933H29.4586C29.3229 22.2402 29.25 21.7651 29.25 21.273C29.25 21.075 29.2618 20.8799 29.2847 20.6881H3.28524C3.75064 11.7386 10.4233 4.79834 18.3921 4.79834C25.0884 4.79834 30.8695 9.69843 32.8211 16.5743C33.2362 16.4594 33.6734 16.398 34.125 16.398C34.3735 16.398 34.6176 16.4166 34.8561 16.4524C32.807 8.61702 26.2734 2.79834 18.3921 2.79834Z" fill="#EFEFEF"/>
<path d="M33.8849 23.8026H34.8082V21.9561H36.6548V21.0328H34.8082V19.1862H33.8849V21.0328H32.0383V21.9561H33.8849V23.8026ZM34.3466 26.1109C33.708 26.1109 33.1078 25.9896 32.5462 25.7471C31.9845 25.5046 31.4959 25.1757 31.0804 24.7606C30.6649 24.3451 30.3361 23.8565 30.0939 23.2948C29.8517 22.7332 29.7304 22.133 29.7301 21.4944C29.7301 20.8558 29.8514 20.2557 30.0939 19.694C30.3364 19.1323 30.6652 18.6437 31.0804 18.2282C31.4959 17.8128 31.9845 17.4839 32.5462 17.2417C33.1078 16.9995 33.708 16.8782 34.3466 16.8779C34.9852 16.8779 35.5853 16.9992 36.147 17.2417C36.7087 17.4842 37.1973 17.8131 37.6127 18.2282C38.0282 18.6437 38.3572 19.1323 38.5997 19.694C38.8423 20.2557 38.9634 20.8558 38.9631 21.4944C38.9631 22.133 38.8418 22.7332 38.5993 23.2948C38.3568 23.8565 38.0279 24.3451 37.6127 24.7606C37.1973 25.176 36.7087 25.505 36.147 25.7476C35.5853 25.9901 34.9852 26.1112 34.3466 26.1109ZM34.3466 25.1876C35.3776 25.1876 36.2509 24.8298 36.9664 24.1143C37.682 23.3987 38.0398 22.5254 38.0398 21.4944C38.0398 20.4634 37.682 19.5901 36.9664 18.8746C36.2509 18.159 35.3776 17.8012 34.3466 17.8012C33.3156 17.8012 32.4423 18.159 31.7267 18.8746C31.0112 19.5901 30.6534 20.4634 30.6534 21.4944C30.6534 22.5254 31.0112 23.3987 31.7267 24.1143C32.4423 24.8298 33.3156 25.1876 34.3466 25.1876Z" fill="#EFEFEF"/>
</g>
<defs>
<clipPath id="clip0_1088_4923">
<rect width="39" height="27.0341" fill="white"/>
</clipPath>
</defs>
</svg>
