<svg width="32" height="32" viewBox="0 0 32 32" fill="none" xmlns="http://www.w3.org/2000/svg">
<path d="M14.5 29C12.0277 29 9.61099 28.2669 7.55537 26.8934C5.49976 25.5198 3.8976 23.5676 2.95151 21.2835C2.00541 18.9995 1.75787 16.4861 2.24019 14.0614C2.7225 11.6366 3.91301 9.40932 5.66117 7.66116C7.40933 5.91301 9.63661 4.7225 12.0614 4.24018C14.4861 3.75787 16.9995 4.00541 19.2835 4.95151C21.5676 5.8976 23.5199 7.49976 24.8934 9.55538C26.2669 11.611 27 14.0277 27 16.5L24.5 16.5C24.5 14.5222 23.9135 12.5888 22.8147 10.9443C21.7159 9.29981 20.1541 8.01808 18.3268 7.26121C16.4996 6.50433 14.4889 6.30629 12.5491 6.69215C10.6093 7.078 8.82746 8.0304 7.42894 9.42893C6.03041 10.8275 5.078 12.6093 4.69215 14.5491C4.3063 16.4889 4.50433 18.4996 5.26121 20.3268C6.01808 22.1541 7.29981 23.7159 8.9443 24.8147C10.5888 25.9135 12.5222 26.5 14.5 26.5L14.5 29Z" fill="#EFEFEF"/>
<path d="M25.3309 20.0156H26.5028C26.71 20.0156 26.9087 20.0979 27.0552 20.2444C27.2017 20.391 27.2841 20.5897 27.2841 20.7969V24.3945C26.3798 24.6539 25.7216 25.4969 25.7216 26.477C25.7216 26.7285 25.8872 26.948 26.12 27.0211C26.121 27.0297 26.122 27.0383 26.1231 27.0469H22.7247C23.0074 26.8184 23.2123 26.5079 23.3113 26.1581C23.4102 25.8084 23.3983 25.4365 23.2771 25.0938C23.156 24.7511 22.9316 24.4544 22.6348 24.2445C22.338 24.0346 21.9835 23.9219 21.62 23.9219H20.0239C19.8305 23.9219 19.645 23.9535 19.4716 24.0121V23.9219C19.4716 23.6111 19.595 23.313 19.8148 23.0932C20.0346 22.8735 20.3326 22.75 20.6434 22.75H24.745C24.7968 22.75 24.8465 22.7706 24.8831 22.8072C24.9197 22.8438 24.9403 22.8935 24.9403 22.9453V23.5312C24.9403 23.7385 24.858 23.9372 24.7115 24.0837C24.565 24.2302 24.3663 24.3125 24.1591 24.3125H23.9637C23.8083 24.3125 23.6593 24.3742 23.5494 24.4841C23.4395 24.594 23.3778 24.743 23.3778 24.8984C23.3778 25.0538 23.4395 25.2029 23.5494 25.3128C23.6593 25.4226 23.8083 25.4844 23.9637 25.4844H25.461C25.5301 25.4844 25.5964 25.4569 25.6452 25.4081C25.6941 25.3592 25.7216 25.2929 25.7216 25.2238V20.7969H25.3309C25.2273 20.7969 25.128 20.7557 25.0547 20.6825C24.9815 20.6092 24.9403 20.5099 24.9403 20.4062C24.9403 20.3026 24.9815 20.2033 25.0547 20.13C25.128 20.0568 25.2273 20.0156 25.3309 20.0156Z" fill="#EFEFEF"/>
<path d="M24.2891 21.5781C24.6485 21.5781 24.9403 21.8695 24.9403 22.2293C24.9403 22.3012 24.8817 22.3594 24.8102 22.3594H21.5548C21.4829 22.3594 21.4247 22.3008 21.4247 22.2293C21.4247 21.8699 21.7161 21.5781 22.0759 21.5781H24.2891ZM26.5028 26.8516C26.5031 27.0391 26.5421 27.2246 26.6172 27.3965C26.6923 27.5684 26.802 27.723 26.9394 27.8507C27.0768 27.9784 27.239 28.0764 27.416 28.1387C27.5929 28.201 27.7808 28.2262 27.9679 28.2128C28.155 28.1993 28.3373 28.1476 28.5035 28.0606C28.6698 27.9737 28.8163 27.8535 28.9341 27.7075C29.0519 27.5615 29.1384 27.3928 29.1881 27.212C29.2379 27.0311 29.25 26.842 29.2235 26.6562H29.4501C29.4974 26.6559 29.5427 26.6369 29.576 26.6033C29.6093 26.5697 29.6279 26.5243 29.6278 26.477C29.6278 25.5062 28.8407 24.7031 27.87 24.7031C26.8993 24.7031 26.1122 25.5062 26.1122 26.477C26.1121 26.5242 26.1307 26.5696 26.1639 26.6032C26.1971 26.6368 26.2423 26.6558 26.2895 26.6562H26.5165C26.5075 26.7199 26.5028 26.7852 26.5028 26.8516ZM28.4227 26.6562C28.4538 26.7446 28.4633 26.8391 28.4503 26.9319C28.4373 27.0246 28.4023 27.1129 28.3481 27.1894C28.294 27.2658 28.2223 27.3281 28.1391 27.3712C28.056 27.4142 27.9637 27.4366 27.87 27.4366C27.7763 27.4366 27.684 27.4142 27.6008 27.3712C27.5176 27.3281 27.446 27.2658 27.3918 27.1894C27.3377 27.1129 27.3027 27.0246 27.2897 26.9319C27.2767 26.8391 27.2862 26.7446 27.3173 26.6562H28.4227ZM19.0946 27.0469C19.1419 27.3732 19.3055 27.6715 19.5553 27.8868C19.8052 28.1021 20.1244 28.2198 20.4542 28.2184C20.7839 28.2169 21.1021 28.0963 21.35 27.8788C21.5979 27.6613 21.7588 27.3615 21.8032 27.0348C22.1471 26.9887 22.4607 26.8136 22.6802 26.5449C22.8998 26.2762 23.009 25.9341 22.9857 25.5879C22.9624 25.2417 22.8084 24.9173 22.5548 24.6804C22.3012 24.4436 21.967 24.3121 21.62 24.3125H20.0239C19.6702 24.3125 19.331 24.453 19.0809 24.7031C18.8308 24.9532 18.6903 25.2924 18.6903 25.6461V26.6562C18.6903 26.7598 18.7315 26.8592 18.8047 26.9325C18.878 27.0057 18.9773 27.0469 19.0809 27.0469H19.0946ZM21.0009 27.0469C20.9606 27.1613 20.8858 27.2605 20.7868 27.3306C20.6878 27.4007 20.5694 27.4384 20.4481 27.4384C20.3268 27.4384 20.2085 27.4007 20.1095 27.3306C20.0104 27.2605 19.9356 27.1613 19.8954 27.0469H21.0009Z" fill="#EFEFEF"/>
<path d="M13.7917 21.4165L15.2084 21.4165L15.2084 20.7082C15.2084 20.5203 15.1337 20.3401 15.0009 20.2073C14.8681 20.0745 14.6879 19.9998 14.5 19.9998C14.3122 19.9998 14.132 20.0745 13.9992 20.2073C13.8663 20.3401 13.7917 20.5203 13.7917 20.7082L13.7917 21.4165Z" fill="#EFEFEF"/>
<path fill-rule="evenodd" clip-rule="evenodd" d="M10.25 9.4165V10.8332H10.9583V12.9582C10.9583 13.8975 11.3315 14.7983 11.9957 15.4625C12.6599 16.1267 13.5607 16.4998 14.5 16.4998C13.5607 16.4998 12.6599 16.873 11.9957 17.5372C11.3315 18.2014 10.9583 19.1022 10.9583 20.0415V22.1665H10.25V23.5832H18.75V22.1665H18.0417V20.0415C18.0417 19.1022 17.6685 18.2014 17.0043 17.5372C16.3401 16.873 15.4393 16.4998 14.5 16.4998C14.9651 16.4998 15.4256 16.4082 15.8553 16.2302C16.285 16.0523 16.6755 15.7914 17.0043 15.4625C17.3332 15.1336 17.5941 14.7432 17.7721 14.3135C17.9501 13.8838 18.0417 13.4233 18.0417 12.9582V10.8332H18.75V9.4165H10.25ZM12.375 10.8332H16.625V12.9582C16.625 13.5218 16.4011 14.0623 16.0026 14.4608C15.6041 14.8593 15.0636 15.0832 14.5 15.0832C13.9364 15.0832 13.3959 14.8593 12.9974 14.4608C12.5989 14.0623 12.375 13.5218 12.375 12.9582V10.8332ZM12.375 20.0415V22.1665H16.625V20.0415C16.625 19.4779 16.4011 18.9374 16.0026 18.5389C15.6041 18.1404 15.0636 17.9165 14.5 17.9165C13.9364 17.9165 13.3959 18.1404 12.9974 18.5389C12.5989 18.9374 12.375 19.4779 12.375 20.0415Z" fill="#EFEFEF"/>
</svg>
