<svg width="26" height="27" viewBox="0 0 26 27" fill="none" xmlns="http://www.w3.org/2000/svg">
<path d="M23 26.5002H17C16.338 26.4969 15.704 26.2325 15.2359 25.7643C14.7677 25.2962 14.5033 24.6622 14.5 24.0002V18.5002H11.5V24.0002C11.4967 24.6622 11.2323 25.2962 10.7641 25.7643C10.296 26.2325 9.66203 26.4969 9 26.5002H3C2.33797 26.4969 1.70399 26.2325 1.23586 25.7643C0.767733 25.2962 0.503286 24.6622 0.5 24.0002V12.4377C0.500825 12.0888 0.574653 11.744 0.716738 11.4254C0.858823 11.1068 1.06602 10.8214 1.325 10.5877L11.3125 1.50018C11.7734 1.07856 12.3754 0.844727 13 0.844727C13.6246 0.844727 14.2266 1.07856 14.6875 1.50018L24.6875 10.5877C24.9424 10.824 25.1461 11.1101 25.2858 11.4283C25.4256 11.7466 25.4985 12.0901 25.5 12.4377V24.0002C25.4967 24.6622 25.2323 25.2962 24.7641 25.7643C24.296 26.2325 23.662 26.4969 23 26.5002ZM17.5 23.5002H22.5V12.6627L13 4.02518L3.5 12.6627V23.5002H8.5V18.0002C8.50329 17.3382 8.76773 16.7042 9.23586 16.236C9.70399 15.7679 10.338 15.5035 11 15.5002H15C15.662 15.5035 16.296 15.7679 16.7641 16.236C17.2323 16.7042 17.4967 17.3382 17.5 18.0002V23.5002Z" fill="#F6C73B"/>
</svg>
