<svg width="152" height="152" viewBox="0 0 152 152" fill="none" xmlns="http://www.w3.org/2000/svg">
<path d="M12.587 45.7095L11 53.5H125.107C129.932 53.5 134.655 52.1034 138.704 49.4788L140.826 48.1036C151.278 41.3289 154.563 27.537 148.287 16.7779C142.511 6.87528 128.091 7.20796 122.778 17.3665L119.123 24.354C118.432 25.6732 117.067 26.5 115.578 26.5H36.104C24.6957 26.5 14.8641 34.5308 12.587 45.7095Z" fill="#E1A10B"/>
<path d="M141.913 77.7905L143.5 70H22C12.4696 70.8664 4.95181 78.4769 4.20222 88.0171L1.1257 127.173C0.499557 135.142 6.34364 142.156 14.2949 142.979C22.5406 143.832 30.0128 138.086 31.3057 129.897L35.9669 100.376C36.2739 98.4319 37.9497 97 39.918 97H118.396C129.804 97 139.636 88.9692 141.913 77.7905Z" fill="#E1A10B"/>
</svg>
