<svg width="32" height="32" viewBox="0 0 32 32" fill="none" xmlns="http://www.w3.org/2000/svg">
<path d="M15.9998 2.6665C8.63984 2.6665 2.6665 8.63984 2.6665 15.9998C2.6665 23.3598 8.63984 29.3332 15.9998 29.3332C23.3598 29.3332 29.3332 23.3598 29.3332 15.9998C29.3332 8.63984 23.3598 2.6665 15.9998 2.6665ZM9.79984 24.6665C11.5465 23.4132 13.6798 22.6665 15.9998 22.6665C18.3198 22.6665 20.4532 23.4132 22.1998 24.6665C20.4532 25.9198 18.3198 26.6665 15.9998 26.6665C13.6798 26.6665 11.5465 25.9198 9.79984 24.6665ZM24.1865 22.8265C21.851 20.9941 18.9683 19.9982 15.9998 19.9982C13.0313 19.9982 10.1486 20.9941 7.81317 22.8265C6.20906 20.9136 5.3309 18.4963 5.33317 15.9998C5.33317 10.1065 10.1065 5.33317 15.9998 5.33317C21.8932 5.33317 26.6665 10.1065 26.6665 15.9998C26.6665 18.5998 25.7332 20.9732 24.1865 22.8265Z" fill="#EFEFEF"/>
<path d="M16.0002 8C13.4268 8 11.3335 10.0933 11.3335 12.6667C11.3335 15.24 13.4268 17.3333 16.0002 17.3333C18.5735 17.3333 20.6668 15.24 20.6668 12.6667C20.6668 10.0933 18.5735 8 16.0002 8ZM16.0002 14.6667C14.8935 14.6667 14.0002 13.7733 14.0002 12.6667C14.0002 11.56 14.8935 10.6667 16.0002 10.6667C17.1068 10.6667 18.0002 11.56 18.0002 12.6667C18.0002 13.7733 17.1068 14.6667 16.0002 14.6667Z" fill="#EFEFEF"/>
</svg>
