<svg width="32" height="32" viewBox="0 0 32 32" fill="none" xmlns="http://www.w3.org/2000/svg">
<path d="M12.3188 20.6533L20.6533 12.3188" stroke="#EFEFEF" stroke-width="2" stroke-linecap="round" stroke-linejoin="round"/>
<path d="M13.0134 13.7079C13.397 13.7079 13.7079 13.397 13.7079 13.0134C13.7079 12.6298 13.397 12.3188 13.0134 12.3188C12.6298 12.3188 12.3188 12.6298 12.3188 13.0134C12.3188 13.397 12.6298 13.7079 13.0134 13.7079Z" fill="#EFEFEF" stroke="#EFEFEF" stroke-width="2" stroke-linecap="round" stroke-linejoin="round"/>
<path d="M19.9588 20.6537C20.3423 20.6537 20.6533 20.3428 20.6533 19.9592C20.6533 19.5756 20.3423 19.2646 19.9588 19.2646C19.5752 19.2646 19.2642 19.5756 19.2642 19.9592C19.2642 20.3428 19.5752 20.6537 19.9588 20.6537Z" fill="#EFEFEF" stroke="#EFEFEF" stroke-width="2" stroke-linecap="round" stroke-linejoin="round"/>
<path d="M6.76252 9.81851C6.76252 9.00801 7.08449 8.23071 7.6576 7.6576C8.23071 7.0845 9.00801 6.76253 9.8185 6.76253H11.2076C12.0145 6.76207 12.7885 6.44249 13.3607 5.87352L14.333 4.90116C14.617 4.61556 14.9547 4.38892 15.3266 4.23427C15.6984 4.07962 16.0972 4 16.5 4C16.9028 4 17.3015 4.07962 17.6734 4.23427C18.0453 4.38892 18.383 4.61556 18.667 4.90116L19.6393 5.87352C20.2115 6.44249 20.9855 6.76207 21.7924 6.76253H23.1815C23.992 6.76253 24.7693 7.0845 25.3424 7.6576C25.9155 8.23071 26.2375 9.00801 26.2375 9.81851V11.2076C26.2379 12.0145 26.5575 12.7885 27.1265 13.3607L28.0988 14.333C28.3844 14.617 28.6111 14.9547 28.7657 15.3266C28.9204 15.6984 29 16.0972 29 16.5C29 16.9028 28.9204 17.3016 28.7657 17.6734C28.6111 18.0453 28.3844 18.383 28.0988 18.667L27.1265 19.6393C26.5575 20.2115 26.2379 20.9855 26.2375 21.7924V23.1815C26.2375 23.992 25.9155 24.7693 25.3424 25.3424C24.7693 25.9155 23.992 26.2375 23.1815 26.2375H21.7924C20.9855 26.2379 20.2115 26.5575 19.6393 27.1265L18.667 28.0988C18.383 28.3844 18.0453 28.6111 17.6734 28.7657C17.3015 28.9204 16.9028 29 16.5 29C16.0972 29 15.6984 28.9204 15.3266 28.7657C14.9547 28.6111 14.617 28.3844 14.333 28.0988L13.3607 27.1265C12.7885 26.5575 12.0145 26.2379 11.2076 26.2375H9.8185C9.00801 26.2375 8.23071 25.9155 7.6576 25.3424C7.08449 24.7693 6.76252 23.992 6.76252 23.1815V21.7924C6.76206 20.9855 6.44248 20.2115 5.87351 19.6393L4.90115 18.667C4.61555 18.383 4.38891 18.0453 4.23426 17.6734C4.07961 17.3016 3.99999 16.9028 3.99999 16.5C3.99999 16.0972 4.07961 15.6984 4.23426 15.3266C4.38891 14.9547 4.61555 14.617 4.90115 14.333L5.87351 13.3607C6.44248 12.7885 6.76206 12.0145 6.76252 11.2076V9.81851Z" stroke="#EFEFEF" stroke-width="2" stroke-linecap="round" stroke-linejoin="round"/>
</svg>
