<svg width="43" height="43" viewBox="0 0 43 43" fill="none" xmlns="http://www.w3.org/2000/svg">
<path d="M19.375 34.25H23.625V30H19.375V34.25ZM21.5 0.25C18.7094 0.25 15.9461 0.799648 13.368 1.86756C10.7898 2.93547 8.44723 4.50074 6.47398 6.47398C2.48883 10.4591 0.25 15.8641 0.25 21.5C0.25 27.1359 2.48883 32.5409 6.47398 36.526C8.44723 38.4993 10.7898 40.0645 13.368 41.1324C15.9461 42.2004 18.7094 42.75 21.5 42.75C27.1359 42.75 32.5409 40.5112 36.526 36.526C40.5112 32.5409 42.75 27.1359 42.75 21.5C42.75 18.7094 42.2004 15.9461 41.1324 13.368C40.0645 10.7898 38.4993 8.44723 36.526 6.47398C34.5528 4.50074 32.2102 2.93547 29.632 1.86756C27.0539 0.799648 24.2906 0.25 21.5 0.25ZM21.5 38.5C12.1287 38.5 4.5 30.8713 4.5 21.5C4.5 12.1287 12.1287 4.5 21.5 4.5C30.8713 4.5 38.5 12.1287 38.5 21.5C38.5 30.8713 30.8713 38.5 21.5 38.5ZM21.5 8.75C19.2457 8.75 17.0837 9.64553 15.4896 11.2396C13.8955 12.8337 13 14.9957 13 17.25H17.25C17.25 16.1228 17.6978 15.0418 18.4948 14.2448C19.2918 13.4478 20.3728 13 21.5 13C22.6272 13 23.7082 13.4478 24.5052 14.2448C25.3022 15.0418 25.75 16.1228 25.75 17.25C25.75 21.5 19.375 20.9688 19.375 27.875H23.625C23.625 23.0938 30 22.5625 30 17.25C30 14.9957 29.1045 12.8337 27.5104 11.2396C25.9163 9.64553 23.7543 8.75 21.5 8.75Z" fill="#F6C73B"/>
</svg>
