<svg width="29" height="30" viewBox="0 0 29 30" fill="none" xmlns="http://www.w3.org/2000/svg">
<path d="M25.8375 28.9875L16.7375 19.8875C15.925 20.5375 14.9906 21.0521 13.9344 21.4312C12.8781 21.8104 11.7542 22 10.5625 22C7.61042 22 5.11225 20.9779 3.068 18.9336C1.02375 16.8894 0.00108333 14.3907 0 11.4375C0 8.48542 1.02267 5.98725 3.068 3.943C5.11333 1.89875 7.6115 0.876083 10.5625 0.875C13.5146 0.875 16.0128 1.89767 18.057 3.943C20.1013 5.98833 21.1239 8.4865 21.125 11.4375C21.125 12.6292 20.9354 13.7531 20.5562 14.8094C20.1771 15.8656 19.6625 16.8 19.0125 17.6125L28.1531 26.7531C28.451 27.051 28.6 27.4167 28.6 27.85C28.6 28.2833 28.4375 28.6625 28.1125 28.9875C27.8146 29.2854 27.4354 29.4344 26.975 29.4344C26.5146 29.4344 26.1354 29.2854 25.8375 28.9875ZM10.5625 18.75C12.5938 18.75 14.3206 18.0393 15.743 16.618C17.1654 15.1967 17.8761 13.4698 17.875 11.4375C17.875 9.40625 17.1638 7.67942 15.7414 6.257C14.319 4.83458 12.5927 4.12392 10.5625 4.125C8.53125 4.125 6.80442 4.83621 5.382 6.25863C3.95958 7.68104 3.24892 9.40733 3.25 11.4375C3.25 13.4687 3.96121 15.1956 5.38363 16.618C6.80604 18.0404 8.53233 18.7511 10.5625 18.75Z" fill="#EFEFEF"/>
</svg>
