<svg width="28" height="28" viewBox="0 0 28 28" fill="none" xmlns="http://www.w3.org/2000/svg">
<path d="M12.6666 14.0003C12.6666 14.3539 12.8071 14.6931 13.0572 14.9431C13.3072 15.1932 13.6463 15.3337 14 15.3337C14.3536 15.3337 14.6927 15.1932 14.9428 14.9431C15.1928 14.6931 15.3333 14.3539 15.3333 14.0003C15.3333 13.6467 15.1928 13.3076 14.9428 13.0575C14.6927 12.8075 14.3536 12.667 14 12.667C13.6463 12.667 13.3072 12.8075 13.0572 13.0575C12.8071 13.3076 12.6666 13.6467 12.6666 14.0003Z" stroke="#F6C73B" stroke-width="2.66667" stroke-linecap="round" stroke-linejoin="round"/>
<path d="M2 14.001C2 15.5768 2.31039 17.1373 2.91345 18.5932C3.5165 20.0491 4.40042 21.372 5.51472 22.4863C6.62902 23.6006 7.95189 24.4845 9.4078 25.0875C10.8637 25.6906 12.4241 26.001 14 26.001C15.5759 26.001 17.1363 25.6906 18.5922 25.0875C20.0481 24.4845 21.371 23.6006 22.4853 22.4863C23.5996 21.372 24.4835 20.0491 25.0866 18.5932C25.6896 17.1373 26 15.5768 26 14.001C26 12.4251 25.6896 10.8647 25.0866 9.40878C24.4835 7.95287 23.5996 6.63 22.4853 5.5157C21.371 4.40139 20.0481 3.51748 18.5922 2.91442C17.1363 2.31137 15.5759 2.00098 14 2.00098C12.4241 2.00098 10.8637 2.31137 9.4078 2.91442C7.95189 3.51748 6.62902 4.40139 5.51472 5.5157C4.40042 6.63 3.5165 7.95287 2.91345 9.40878C2.31039 10.8647 2 12.4251 2 14.001Z" stroke="#F6C73B" stroke-width="2.66667" stroke-linecap="round" stroke-linejoin="round"/>
</svg>
