<svg width="30" height="30" viewBox="0 0 30 30" fill="none" xmlns="http://www.w3.org/2000/svg">
<path d="M28.4211 24.5V26.0833C28.4211 26.9232 28.0883 27.7286 27.4961 28.3225C26.9039 28.9164 26.1007 29.25 25.2632 29.25H3.15789C2.32037 29.25 1.51715 28.9164 0.924926 28.3225C0.332706 27.7286 0 26.9232 0 26.0833V3.91667C0 3.07681 0.332706 2.27136 0.924926 1.6775C1.51715 1.08363 2.32037 0.75 3.15789 0.75H25.2632C26.1007 0.75 26.9039 1.08363 27.4961 1.6775C28.0883 2.27136 28.4211 3.07681 28.4211 3.91667V5.5H14.2105C13.373 5.5 12.5698 5.83363 11.9776 6.4275C11.3853 7.02136 11.0526 7.82681 11.0526 8.66667V21.3333C11.0526 22.1732 11.3853 22.9786 11.9776 23.5725C12.5698 24.1664 13.373 24.5 14.2105 24.5M14.2105 21.3333H30V8.66667H14.2105M20.5263 17.375C19.8982 17.375 19.2958 17.1248 18.8516 16.6794C18.4074 16.234 18.1579 15.6299 18.1579 15C18.1579 14.3701 18.4074 13.766 18.8516 13.3206C19.2958 12.8752 19.8982 12.625 20.5263 12.625C21.1545 12.625 21.7569 12.8752 22.201 13.3206C22.6452 13.766 22.8947 14.3701 22.8947 15C22.8947 15.6299 22.6452 16.234 22.201 16.6794C21.7569 17.1248 21.1545 17.375 20.5263 17.375Z" fill="#F6C73B"/>
<path d="M3.48246 13.5831C3.60993 13.5831 3.71349 13.4851 3.7179 13.3626C3.71349 13.2401 3.60993 13.1421 3.48246 13.1421C3.35501 13.1421 3.25142 13.2401 3.24707 13.3626C3.2514 13.4851 3.35499 13.5831 3.48246 13.5831Z" fill="#212121"/>
<path d="M3.48249 13.0376C3.3034 13.0376 3.1582 13.1832 3.1582 13.3628C3.1582 13.5423 3.30342 13.6879 3.48249 13.6879C3.66156 13.6879 3.80677 13.5423 3.80677 13.3628C3.80677 13.1832 3.66156 13.0376 3.48249 13.0376ZM3.48248 13.5993C3.35222 13.5993 3.24663 13.497 3.24663 13.3707C3.24663 13.368 3.247 13.3654 3.24708 13.3628C3.247 13.3601 3.24663 13.3575 3.24663 13.3548C3.24663 13.2286 3.35224 13.1263 3.48248 13.1263C3.61273 13.1263 3.71831 13.2286 3.71831 13.3548C3.71831 13.3575 3.718 13.3601 3.71793 13.3628C3.71802 13.3654 3.71831 13.368 3.71831 13.3707C3.7183 13.497 3.61273 13.5993 3.48248 13.5993Z" fill="#212121"/>
<path d="M7.04946 16.5673L5.34552 17.6648C5.61324 17.8993 6.28029 18.2811 6.80671 17.932C7.33312 17.583 7.1485 16.7818 7.04946 16.5673Z" fill="#212121" stroke="#212121" stroke-width="0.220043" stroke-linecap="round"/>
<path d="M5.77212 12.3052C6.03503 12.3052 6.24862 12.103 6.25771 11.8503C6.24862 11.5977 6.03503 11.3955 5.77212 11.3955C5.50925 11.3955 5.29559 11.5977 5.28662 11.8503C5.29556 12.103 5.50921 12.3052 5.77212 12.3052Z" fill="#212121"/>
<path d="M5.77187 11.1797C5.4025 11.1797 5.10303 11.48 5.10303 11.8504C5.10303 12.2207 5.40253 12.521 5.77187 12.521C6.14121 12.521 6.44069 12.2207 6.44069 11.8504C6.44069 11.48 6.14121 11.1797 5.77187 11.1797ZM5.77184 12.3381C5.50319 12.3381 5.2854 12.1271 5.2854 11.8668C5.2854 11.8612 5.28616 11.8558 5.28634 11.8504C5.28616 11.8449 5.2854 11.8394 5.2854 11.8339C5.2854 11.5736 5.50322 11.3626 5.77184 11.3626C6.04049 11.3626 6.25825 11.5736 6.25825 11.8339C6.25825 11.8394 6.25761 11.8449 6.25746 11.8504C6.25765 11.8558 6.25825 11.8612 6.25825 11.8668C6.25822 12.1271 6.04049 12.3381 5.77184 12.3381Z" fill="#212121"/>
<path d="M4.40602 12.8053C4.56877 12.8053 4.70099 12.6801 4.70662 12.5238C4.70099 12.3674 4.56877 12.2422 4.40602 12.2422C4.24328 12.2422 4.11102 12.3674 4.10547 12.5238C4.111 12.6801 4.24326 12.8053 4.40602 12.8053Z" fill="#212121"/>
<path d="M4.40623 12.1084C4.17758 12.1084 3.99219 12.2943 3.99219 12.5236C3.99219 12.7528 4.1776 12.9388 4.40623 12.9388C4.63487 12.9388 4.82026 12.7528 4.82026 12.5236C4.82026 12.2943 4.63487 12.1084 4.40623 12.1084ZM4.40622 12.8255C4.23991 12.8255 4.10509 12.6949 4.10509 12.5337C4.10509 12.5303 4.10556 12.527 4.10567 12.5236C4.10556 12.5202 4.10509 12.5168 4.10509 12.5134C4.10509 12.3522 4.23993 12.2216 4.40622 12.2216C4.57252 12.2216 4.70733 12.3522 4.70733 12.5134C4.70733 12.5168 4.70693 12.5202 4.70684 12.5236C4.70695 12.527 4.70733 12.5303 4.70733 12.5337C4.70731 12.6949 4.57252 12.8255 4.40622 12.8255Z" fill="#212121"/>
<path d="M4.99212 17.3804C5.30717 15.7026 5.12151 14.7557 4.78803 14.5453L5.05627 14.457C5.66239 16.0511 5.53303 16.8526 5.52075 17.1396C5.45542 17.4168 5.26487 17.4854 5.20897 17.5017C5.01757 17.5943 4.98465 17.4594 4.99212 17.3804Z" fill="#212121" stroke="#212121" stroke-width="0.110022"/>
<path d="M6.68149 13.4752C5.24501 14.2303 6.12679 15.7291 6.74724 16.3842C6.79595 16.4202 6.81824 16.4081 6.95973 16.299C6.99783 16.2454 6.71476 15.7884 6.67773 15.7343C6.18289 15.0118 5.81019 13.7235 7.21597 13.4162L6.68149 13.4752Z" fill="#212121" stroke="#212121" stroke-width="0.110021"/>
<path fill-rule="evenodd" clip-rule="evenodd" d="M6.73063 13.678L6.53971 13.3964C6.49907 13.311 6.48831 13.2167 6.50514 13.1276C6.57292 12.7687 7.06878 12.4909 7.49695 12.5715C7.73333 12.616 7.88872 12.8448 7.84387 13.0823C7.76263 13.5125 7.32459 13.8754 6.96689 13.8081C6.87832 13.7914 6.79496 13.747 6.73063 13.678Z" fill="#212121"/>
<path d="M4.23389 13.7617L4.53539 14.4763C4.56051 14.5359 4.6837 14.624 4.97543 14.5001M4.97543 14.5001C5.26717 14.3762 5.28985 14.2261 5.26473 14.1666L4.96323 13.452M4.97543 14.5001L4.59856 13.6069" stroke="#212121" stroke-width="0.330065" stroke-linecap="round"/>
<g clip-path="url(#clip0_2213_6175)">
<path d="M7.54382 12.1572C7.89436 12.1572 8.17915 11.8876 8.19127 11.5508C8.17915 11.2139 7.89436 10.9443 7.54382 10.9443C7.19332 10.9443 6.90844 11.2139 6.89648 11.5508C6.9084 11.8876 7.19328 12.1572 7.54382 12.1572Z" fill="#212121"/>
<path d="M7.54365 10.6572C7.05116 10.6572 6.65186 11.0576 6.65186 11.5515C6.65186 12.0453 7.0512 12.4457 7.54365 12.4457C8.0361 12.4457 8.4354 12.0453 8.4354 11.5515C8.4354 11.0576 8.0361 10.6572 7.54365 10.6572ZM7.54361 12.2018C7.18541 12.2018 6.89502 11.9205 6.89502 11.5734C6.89502 11.566 6.89603 11.5588 6.89628 11.5515C6.89603 11.5441 6.89502 11.5369 6.89502 11.5295C6.89502 11.1824 7.18545 10.9011 7.54361 10.9011C7.90181 10.9011 8.19216 11.1824 8.19216 11.5295C8.19216 11.5369 8.19131 11.5441 8.1911 11.5515C8.19135 11.5588 8.19216 11.566 8.19216 11.5734C8.19212 11.9205 7.90181 12.2018 7.54361 12.2018Z" fill="#212121"/>
</g>
<defs>
<clipPath id="clip0_2213_6175">
<rect width="2.59419" height="2.6014" fill="white" transform="translate(6.21533 10.2505)"/>
</clipPath>
</defs>
</svg>
