<svg width="36" height="36" viewBox="0 0 36 36" fill="none" xmlns="http://www.w3.org/2000/svg">
<path fill-rule="evenodd" clip-rule="evenodd" d="M17.31 33.5265L17.415 33.5865L17.457 33.6105C17.6235 33.7006 17.8099 33.7477 17.9993 33.7477C18.1886 33.7477 18.375 33.7006 18.5415 33.6105L18.5835 33.588L18.69 33.5265C19.2767 33.1786 19.8491 32.8073 20.406 32.4135C21.8476 31.3957 23.1946 30.2501 24.4305 28.9905C27.3465 26.0055 30.375 21.5205 30.375 15.75C30.375 12.4679 29.0712 9.32032 26.7504 6.99955C24.4297 4.67879 21.2821 3.375 18 3.375C14.7179 3.375 11.5703 4.67879 9.24955 6.99955C6.92879 9.32032 5.625 12.4679 5.625 15.75C5.625 21.519 8.655 26.0055 11.5695 28.9905C12.805 30.25 14.1514 31.3956 15.5925 32.4135C16.1499 32.8074 16.7228 33.1787 17.31 33.5265ZM18 20.25C19.1935 20.25 20.3381 19.7759 21.182 18.932C22.0259 18.0881 22.5 16.9435 22.5 15.75C22.5 14.5565 22.0259 13.4119 21.182 12.568C20.3381 11.7241 19.1935 11.25 18 11.25C16.8065 11.25 15.6619 11.7241 14.818 12.568C13.9741 13.4119 13.5 14.5565 13.5 15.75C13.5 16.9435 13.9741 18.0881 14.818 18.932C15.6619 19.7759 16.8065 20.25 18 20.25Z" fill="#F6C73B"/>
</svg>
